<svg xmlns="http://www.w3.org/2000/svg" viewBox="0 0 1080 1080"><defs><style>.cls-1{fill:#d95276;}.cls-2,.cls-4{fill:#73142d;}.cls-3{fill:#f2acbf;}.cls-4{font-size:562.12px;font-family:MyriadPro-Regular, Myriad Pro;letter-spacing:0.05em;}</style></defs><g id="Layer_2" data-name="Layer 2"><g id="bg"><rect class="cls-1" width="1080" height="1080" rx="106.19"/></g><g id="Layer_15" data-name="Layer 15"><path class="cls-2" d="M948.5,937.37V941c-4.71-.79-9.52-1.22-14.12-2.44-58.21-15.43-116.27-31.42-174.68-46-8.77-2.19-20.51-.68-28.51,3.57C678.71,924,622.93,940.29,563.92,944.29,370.16,957.41,195,831.18,145.54,643c-6.22-23.67-9.43-48.14-14-72.24v-69c1.36-7.61,2.85-15.19,4.06-22.81,36.08-226.33,248.31-377.5,473.55-337.28,249.34,44.52,399,309,304.74,544-15.5,38.65-18.66,71.43-5.74,109.78C923.78,842,935.23,890,948.5,937.37Zm-68.19-62.54c-12.59-47-24.58-89.91-35.26-133.19-1.93-7.82-.89-18.31,2.92-25.32,38.15-70.16,52.11-144.08,42.83-223.78C868.13,298,673.49,153,479.61,186.91c-202,35.31-329.41,226.33-294.33,417.83,44.6,243.43,325.45,370.78,536.31,240.46,10.73-6.64,19.89-8.18,31.84-4.77C794.47,852.13,835.78,862.84,880.31,874.83Z"/><path class="cls-3" d="M880.31,874.83c-44.53-12-85.84-22.7-126.88-34.4-11.95-3.41-21.11-1.87-31.84,4.77-210.86,130.32-491.71,3-536.31-240.46-35.08-191.5,92.3-382.52,294.33-417.83C673.49,153,868.13,298,890.8,492.54c9.28,79.7-4.68,153.62-42.83,223.78-3.81,7-4.85,17.5-2.92,25.32C855.73,784.92,867.72,827.86,880.31,874.83Z"/><text class="cls-4" transform="translate(325 704.97)">...</text></g></g></svg>