<svg xmlns="http://www.w3.org/2000/svg" viewBox="0 0 1080 1080"><defs><style>.cls-1{fill:#d95276;}.cls-2{fill:#73142d;}.cls-3{fill:#f2acbf;}</style></defs><g id="Layer_2" data-name="Layer 2"><g id="pink"><rect class="cls-1" width="1080" height="1080" rx="106.19"/></g><g id="cal_month" data-name="cal month"><path class="cls-2" d="M489.06,135.51h91c0,23-.54,45.47.25,67.91.34,9.62,1.78,19.87,5.6,28.57,9.73,22.16,34.9,34.67,57.86,30.52,25.37-4.59,44.43-24.08,46-49.29,1.27-20.88.52-41.89.65-62.84,0-4.83,0-9.66,0-14.94H780.5c.26,4.08.71,8,.73,11.88.08,20.14-.4,40.29.19,60.41.93,32,25.27,55.71,55.89,55.36,30.84-.35,54.2-24.45,54.49-56.54.21-23.32,0-46.65,0-71.56h73.8v14q0,392,0,784.09c0,40.61-22.71,63.74-63,63.75q-368.64.15-737.27.05c-38.76,0-62.42-23.59-62.43-62.09q-.06-393.9,0-787.81c0-3.58.37-7.16.6-11.33h73c0,24.32-.28,48,.08,71.74.38,25.56,16.51,46.83,39.8,53.46,35.56,10.12,70.06-15.41,70.72-52.74.41-23.76.07-47.54.07-72.21h91.1v37.38c0,11.51-.17,23,.06,34.52.61,31,24.39,55,54.58,55.32s54.6-23.26,55.9-54.17c.52-12.31.12-24.66.13-37C489.06,160.11,489.06,148.28,489.06,135.51ZM175.48,345.69V362q0,249.68.07,499.35c0,40.74,22.38,63.25,63.24,63.26q294.69.11,589.36.08c42.81,0,65.45-22.42,65.46-65.26q.07-250.27,0-500.55V345.69Z"/><path class="cls-2" d="M398.37,162.18c0-14.37-.2-28.74.05-43.1.37-21.09,14.25-35.9,33.78-36.48,20-.59,35.65,12.93,36.3,33.78q1.41,46.14.13,92.34a34.87,34.87,0,0,1-36.13,34.42c-18.93-.63-33.7-16.3-34.08-36.62C398.14,191.75,398.37,177,398.37,162.18Z"/><path class="cls-2" d="M267.33,161.88c0,14.78.25,29.57-.06,44.34-.44,21.06-15.67,36.83-35.12,36.89-19.71.06-35-15.28-35.35-36.59q-.63-44.34.07-88.69c.35-21,16.14-35.81,36.28-35.31,19.44.48,33.78,15.58,34.09,36.25.22,14.37,0,28.74,0,43.11Z"/><path class="cls-2" d="M600.15,161.39c0-14.77-.31-29.56.08-44.32.53-20.39,15.59-34.75,35.54-34.5,19.23.23,34,14.64,34.22,34.5q.59,44.93.08,89.88c-.22,21.17-15.64,36.4-35.53,36.05-19.3-.34-33.82-15.54-34.42-36.05,0-.82,0-1.64,0-2.46v-43.1Z"/><path class="cls-2" d="M871.88,163.15c0,14.77.28,29.56-.06,44.32-.47,20.21-15.73,35.49-35,35.56-18.9.06-34.56-14.29-35-34.07q-1-46.76.07-93.57c.45-19,15.93-32.81,34.67-32.85,19.21,0,34.46,14.27,35.12,33.82.53,15.58.11,31.19.11,46.79Z"/><path class="cls-3" d="M175.48,345.69H893.63v13.14q0,250.27,0,500.55c0,42.84-22.65,65.27-65.46,65.26q-294.67,0-589.36-.08c-40.86,0-63.23-22.52-63.24-63.26q0-249.67-.07-499.35Zm273.18,40.05H350.57v97.64h98.09Zm307-.41v98h97.48v-98ZM350.19,888.39h98.32V790.93H350.19ZM583.12,385.56H485.35v98h97.77Zm135.39.08h-97.9v97.85h97.9Zm-269.9,135H350.5v97.44h98.11ZM350.69,655.79v97.32h97.87V655.79ZM313.5,888.57v-98H215.66v98Zm269.79-97.79H485.62v97.54h97.67Zm135,97.85V790.54H620.91v98.09ZM852.92,618.42v-98h-97.3v98Zm.45,135.07V655.65H755.26v97.84ZM215.78,520.42v97.74h97.63V520.42Zm269.67,0v97.74H583V520.42Zm135.24.27V618h97.63V520.69ZM313.57,655.77H215.71v97.61h97.86ZM583,753.64V655.9H485.5v97.74Zm135.38-97.93H620.51v97.7h97.84Z"/><path class="cls-2" d="M448.66,385.74v97.64H350.57V385.74Z"/><path class="cls-2" d="M755.64,385.33h97.48v98H755.64Z"/><path class="cls-2" d="M350.19,888.39V790.93h98.32v97.46Z"/><path class="cls-2" d="M583.12,385.56v98H485.35v-98Z"/><path class="cls-2" d="M718.51,385.64v97.85h-97.9V385.64Z"/><path class="cls-2" d="M448.61,520.67v97.44H350.5V520.67Z"/><path class="cls-2" d="M350.69,655.79h97.87v97.32H350.69Z"/><path class="cls-2" d="M313.5,888.57H215.66v-98H313.5Z"/><path class="cls-2" d="M583.29,790.78v97.54H485.62V790.78Z"/><path class="cls-2" d="M718.24,888.63H620.91V790.54h97.33Z"/><path class="cls-2" d="M852.92,618.42h-97.3v-98h97.3Z"/><path class="cls-2" d="M853.37,753.49H755.26V655.65h98.11Z"/><path class="cls-2" d="M215.78,520.42h97.63v97.74H215.78Z"/><path class="cls-2" d="M485.45,520.42H583v97.74H485.45Z"/><path class="cls-2" d="M620.69,520.69h97.63V618H620.69Z"/><path class="cls-2" d="M313.57,655.77v97.61H215.71V655.77Z"/><path class="cls-2" d="M583,753.64H485.5V655.9H583Z"/><path class="cls-2" d="M718.35,655.71v97.7H620.51v-97.7Z"/></g></g></svg>