<svg xmlns="http://www.w3.org/2000/svg" viewBox="0 0 1080 1080"><defs><style>.cls-1{fill:#d95276;}.cls-2{fill:#73142d;}</style></defs><g id="Layer_2" data-name="Layer 2"><g id="bg"><rect class="cls-1" width="1080" height="1080" rx="106.19"/></g><g id="Layer_8" data-name="Layer 8"><path class="cls-2" d="M367.74,566.6v-7.75c0-99.88.1-199.75-.24-299.63,0-6.86,2.95-10,9.83-12.69,41.8-16.31,85.88-20.7,130.72-14.23,45.45,6.55,90.32,15.9,135.45,24,42.21,7.57,84.56,12.8,127.78,6A234.52,234.52,0,0,0,848.47,236c2.9-1.59,5.86-3.13,10.13-5.41.33,3.65.75,6.17.75,8.69q0,150.21.15,300.44c0,6.33-2.82,9.74-8.71,13.08-47.33,26.83-100,35.52-155.58,28.26-46.2-6.05-91.72-15.7-137.48-24-44.17-8-88.6-13.78-133.5-5.44C405.37,555.21,387.22,561.37,367.74,566.6Z"/><path class="cls-2" d="M323.14,852.55V805.09q0-291.6.1-583.21c0-6.55-1.33-11.32-6.52-16.14-13.37-12.38-12.79-34,.3-46.48a32.77,32.77,0,0,1,46.65,1.43c12.24,13,11.76,33.84-1.81,45.81-4.72,4.16-5.59,8.47-5.59,14.12q.14,305,.08,610v21.42c2.52.16,5.33.47,8.14.48,20.84.05,41.73-.69,62.52.42a48.24,48.24,0,0,1,23.73,8.16c4.43,3.06,7.23,10.81,7.75,16.73,1.13,12.9.44,26,.31,39-.08,7.9-3.82,11.92-11.6,12.86a46.71,46.71,0,0,1-5.68.11H237.64c-13.8,0-17.1-3.36-17.11-17.26,0-10.83-.08-21.66,0-32.49.13-14.32,8.18-24.34,22.4-26.32,9.05-1.26,18.34-1,27.53-1.1C287.77,852.44,305.06,852.55,323.14,852.55Z"/></g></g></svg>