<svg xmlns="http://www.w3.org/2000/svg" viewBox="0 0 1080 1080"><defs><style>.cls-1{fill:#d95276;}.cls-2{fill:#73142d;}</style></defs><g id="Layer_2" data-name="Layer 2"><g id="bg"><rect class="cls-1" width="1080" height="1080" rx="106.19"/></g><g id="Layer_9" data-name="Layer 9"><path class="cls-2" d="M573,396.89c-7.08-32.47-5.9-53.37-17.72-84-29.75-77.1-103.55-115.55-189.86-106.51-68.48,7.17-115.77,40.49-139.46,105.11-5.53,15.09-6.28,32-8.4,48.26-1.24,9.55,1.09,19.94-1.79,28.78-2.45,7.49-8.94,15.87-15.83,18.9-4.09,1.79-14.51-4.45-18.44-9.77-17-23-20.86-48.81-11.43-75.92,28.87-83,96.79-157.88,213.08-157.56,127.64.36,221.46,84.38,236.77,211.94,8.16,68-6.8,129.9-43.38,186.71-44.08,68.47-83.35,139-108.24,217.15-7.16,22.49-17.36,45-30.78,64.25-14,20-31.1,39.71-51.11,53.23-41.36,27.93-94.36,23-131.83-7.52-39.71-32.32-57.29-89.77-41.33-135.19.74-2.13,1.32-5.17,2.9-6,7.07-3.67,14.47-6.68,21.76-9.92,1.52,6.47,4.12,12.91,4.36,19.43.7,19-2.52,38.65,1.24,56.93,6.5,31.55,28,48.88,60.71,53.06,51.75,6.62,87.15-9.46,112.15-55.08,11.4-20.79,21.47-42.75,28.74-65.28a842.45,842.45,0,0,1,88.19-189.23c28.22-45,40.21-94.72,39.22-147.73C574.06,410.62,571.36,397.2,573,396.89Z"/><path class="cls-2" d="M505.31,441.84c-3.24-17.68-5.47-35.62-9.92-53-10.63-41.49-34.63-62.07-68.86-60.68-32.21,1.31-58.1,20.59-66.86,51.36-14.3,50.25-5.68,96.27,26.27,138.13,29,38,41.29,79.79,20.73,125.71-13.46,30.08-37,49.15-71.13,50-37.46,1-56.42-29.38-40.52-62.87,2.67-5.63,4.57-11.67,7.62-17.07,19.51-34.48,13.14-64.14-13.88-92.29-19.6-20.43-19.41-45.91-.68-67.38,11-12.62,15.08-25.83,14.07-42a223.48,223.48,0,0,1,.59-39.15c4.41-38.57,24.65-65.75,62-77.58,39.73-12.58,77.56-7,107.44,23.1,33.74,34,41.76,77.14,37.29,123.05Z"/><path class="cls-2" d="M915,539.26c-.94,68.35-20.42,130.58-61.29,185.8-7.68,10.37-16.57,19.48-29.37,9.58-12.12-9.36-7.5-20.43.35-31.3,74.26-103,74.14-223.73-.35-327.55-8-11.08-11.78-22.12.46-31.18,12-8.87,20.68-.91,28.21,9.12C894.23,408.75,913.76,470.94,915,539.26Z"/><path class="cls-2" d="M838,533.57c-.94,61-17.84,109.73-54.23,151.24-7.94,9.06-16.73,17.7-28.52,6.82-11.17-10.29-7.12-20.93,1.73-31.33,61.65-72.5,61.63-168.4.2-240.9a50.13,50.13,0,0,1-4.38-5.21c-6.37-10-6-19.51,3.55-27.21,9.07-7.37,17-3.37,23.87,4,28.64,30.71,46.41,66.94,53.77,108.16C836.33,512.48,837.12,526.12,838,533.57Z"/><path class="cls-2" d="M766.46,542.07c-1,42.39-17.3,78.89-52.09,106.59-9,7.16-18.58,10.86-26.76.38s-6.51-21.64,4.57-29.63c52.57-37.9,52.53-121,.31-158.88-10.92-7.93-13.38-18.85-5.12-29.59,8.84-11.49,18.86-6.66,28,.85C749.81,459.87,766,496.46,766.46,542.07Z"/></g></g></svg>