<svg xmlns="http://www.w3.org/2000/svg" viewBox="0 0 1080 1080"><defs><style>.cls-1{fill:#d95276;}.cls-2{fill:#73142d;}.cls-3{fill:#f2acbf;}</style></defs><g id="Layer_2" data-name="Layer 2"><g id="bg"><rect class="cls-1" width="1080" height="1080" rx="106.19"/></g><g id="Layer_10" data-name="Layer 10"><path class="cls-2" d="M344.23,342.21c4.25-103.52,84-191.32,183.31-198.07C635,136.83,725.31,210.36,739.09,315.2c5,38.15-.84,74.07-16.43,108.56-49.61,109.69-99.3,219.36-150.14,328.48-4.51,9.68-17.64,21.33-26.65,21.24s-21.81-11.9-26.43-21.66C467.91,643,416.87,534,367.61,424.12,356.11,398.48,351.83,369.6,344.23,342.21Zm199.61-96.86a83.85,83.85,0,0,0-83.55,84.31c.18,45.85,38.84,84.11,84.64,83.76,46-.36,83.7-38.66,83.48-84.84A83.68,83.68,0,0,0,543.84,245.35Z"/><path class="cls-3" d="M450.77,680.76l17.44,37.55c-31.31,9.63-62.09,18.1-92.08,28.76-13.61,4.84-26.58,12.82-38.26,21.49-32.65,24.23-32.54,50.4,1,74.1,15.25,10.76,32.34,20.17,50,26.11,104.29,35.15,209,34.8,313.37-.18a187.67,187.67,0,0,0,34.2-15.83c52.55-30.57,53.67-65.57.33-93.79-28.61-15.14-61.28-22.66-92.24-33.25-7.07-2.42-14.65-3.36-22.24-5,20.16-48.51,9.73-44.93,57.51-30.8,36.2,10.7,72.86,26.69,103.21,48.74,51.57,37.45,49.54,94.21-.07,134.93-40.24,33-88.55,47.49-138.75,55.57C546.46,944.85,450,942,357.2,903.25a213.9,213.9,0,0,1-45.4-25.85c-57-42.69-55.75-104.63,2.59-146.32C354.58,702.35,400.62,688.88,450.77,680.76Z"/><path class="cls-3" d="M489.85,755l-96.62,29.32c40.83,50.84,250.94,51.84,299.75,5-25.33-21.83-57.86-22.6-87.71-30.16,10.26-31.6,10.63-32.95,40-24.84,21.33,5.89,43.15,13.28,61.81,24.78,26.37,16.24,26,43.86,1.07,62.19a114.42,114.42,0,0,1-35.45,17.55c-85.57,24.47-171.51,24.68-257-.1-14.36-4.16-28.61-12.08-40.24-21.54-18.75-15.26-19.78-42.47.93-53.76,27.65-15.07,58.87-24.22,89.47-32.58C470.88,729.5,480.57,745.31,489.85,755Z"/><path class="cls-3" d="M543.84,245.35a83.68,83.68,0,0,1,84.57,83.23c.22,46.18-37.47,84.48-83.48,84.84-45.8.35-84.46-37.91-84.64-83.76A83.85,83.85,0,0,1,543.84,245.35Z"/></g></g></svg>