<svg xmlns="http://www.w3.org/2000/svg" viewBox="0 0 1080 1080"><defs><style>.cls-1{fill:#87d150;}.cls-2{fill:#2b8a28;}</style></defs><g id="Layer_2" data-name="Layer 2"><g id="pink"><rect class="cls-1" width="1080" height="1080" rx="106.19"/></g><g id="Layer_1-2" data-name="Layer 1"><path class="cls-2" d="M390.51,306a31.05,31.05,0,0,0,1.84,5.27c2,4.56,5,12.15,6.8,16.81q2.14,5.63,4.31,11.23a12.26,12.26,0,0,0,1.06,1.73h304.1c.87,0,1.74.23,2.61.21a13.12,13.12,0,0,0,2.26-.44c-.83-2.52-1.48-4.71-2.26-6.86-1.54-4.24-3.24-8.43-4.71-12.7-1.16-3.37-2-6.85-3.14-10.23-.6-1.79-1.66-3.43-2.28-5.21-1.28-3.65-2.31-7.39-3.62-11-2-5.47-4.75-10.4-9.76-13.73a23.32,23.32,0,0,0-7.83-3.87,44.79,44.79,0,0,0-6.63-.91c-4.72-.33-9.51.26-14.17-.59a109.58,109.58,0,0,0-37.93.25,41.21,41.21,0,0,1-6.47.21c-6.26.08-11-2.87-15.27-7.18a18.64,18.64,0,0,1-4.76-8.68,18.21,18.21,0,0,1-.62-7.57c.47-2.74.76-5.45,2.09-8a23.08,23.08,0,0,1,8-8.66,22.55,22.55,0,0,1,5.55-2.73,18.42,18.42,0,0,1,5.21-.51c6.4-.05,12.79,0,19.19,0q18.72,0,37.44,0c2.4,0,4.8.12,7.2.11,4.83,0,9.36,1.44,14,2.68a66.38,66.38,0,0,1,16.85,7.52,61.87,61.87,0,0,1,10.73,8.32,68.27,68.27,0,0,1,12.41,15.8,59.89,59.89,0,0,1,6.63,16.06,14.61,14.61,0,0,0,1.13,3.06c2,4.15,2.58,8.69,4.62,12.89,2,4,3,8.51,4.39,12.8.8,2.39,1.6,4.79,2.41,7.18q2.25,6.63,4.51,13.26c.38,1.12.81,2.23,1.19,3.35,1.15,3.45,1.87,7,3.39,10.38a64.5,64.5,0,0,1,2.35,7.45,5.17,5.17,0,0,0,.25.92c2.08,4.12,3.37,8.53,4.85,12.87,1.53,4.5,3.24,8.95,4.79,13.45,1.41,4.1,2.69,8.26,4.07,12.38,1,3.08,2.14,6.14,3.19,9.22,1,2.86,1.89,5.74,2.92,8.59,1.24,3.4,2.63,6.75,3.83,10.16.8,2.29,1.33,4.69,2.12,7,1.26,3.67,2.66,7.29,4,11,.77,2.17,1.41,4.38,2.14,6.57,1.42,4.27,2.87,8.53,4.31,12.79.91,2.7,1.83,5.39,2.74,8.08.57,1.68.64,1.81,2.36,1.58,2.92-.38,5.81-.91,8.72-1.33,3.72-.54,7.42-1.24,11.16-1.5,7.25-.52,14.52-.83,21.79-1.11,1.57-.06,3.15.41,4.73.51,2,.13,4,.05,6,.2,5.18.38,10.37.74,15.53,1.33,2.83.32,5.62,1.08,8.43,1.66,3.49.71,7,1.36,10.47,2.19,3,.72,5.94,1.6,8.88,2.51,3.39,1.06,6.77,2.14,10.1,3.38,3.49,1.29,7,2.64,10.33,4.2,5.24,2.43,10.41,5,15.55,7.64,1.61.83,3.36,1.57,4.46,3.18a.35.35,0,0,0,.26.16c3.89.46,6.37,3.45,9.42,5.34A150.78,150.78,0,0,1,963,505.28c1.83,1.41,3.6,2.89,5.29,4.46,3.18,3,6.56,5.75,9.66,8.82,2.43,2.39,4.86,4.79,7.14,7.32,3.37,3.76,6.79,7.5,9.88,11.48,3.78,4.88,7.72,9.67,10.71,15.13.49.9,1.2,1.68,1.75,2.55a173.06,173.06,0,0,1,12.85,24.35c2.33,5.45,4.16,11.12,6.32,16.66a51.13,51.13,0,0,1,2.61,8.55c1.2,5.92,3,11.71,4.32,17.61.25,1.15.43,2.31.57,3.47.8,6.82,1.46,13.66,2,20.5q.29,3.35.27,6.7c0,5.34.43,10.7-.59,16a14.68,14.68,0,0,0-.23,2.09,124.1,124.1,0,0,1-1.81,16.76c-.83,5.61-2.31,11.07-3.6,16.56a78.29,78.29,0,0,1-4.43,14.27c-1.24,2.8-2,5.84-3.12,8.68-2,4.75-4.14,9.42-6.25,14.1a101.91,101.91,0,0,1-7.18,13.24c-3.92,6.13-7.7,12.37-12.38,18-3.36,4-6.62,8.12-10.07,12.06-3.09,3.51-6.23,7-9.59,10.23s-6.79,6-10.27,8.92c-3.79,3.15-7.65,6.22-11.54,9.24a36.3,36.3,0,0,1-3.81,2.57c-6.52,3.85-13,7.78-19.64,11.39-4.58,2.5-9.35,4.67-14.13,6.78-3,1.31-6.11,2.2-9.17,3.31-2.51.9-5,1.91-7.51,2.77-.87.3-1.76.54-2.66.76-4.38,1.09-8.74,2.26-13.15,3.24-2.32.52-4.7.77-7,1.19-1.62.29-3.22.74-4.86,1a9.65,9.65,0,0,1-2.28-.25,16.87,16.87,0,0,1-3.39,1.13,223,223,0,0,1-32.07,1c-5-.13-10-.62-15-1-2.05-.18-4.1-.48-6.13-.81-.92-.15-1.84-.33-2.74-.54-4.65-1.08-9.31-2.14-14-3.23-2.76-.65-5.52-1.28-8.27-2-1-.26-2.66-.8-3.65-1.17-4.48-1.67-9-3.23-13.43-5-3.37-1.35-6.74-2.73-10-4.38q-8.88-4.59-17.58-9.53a131.08,131.08,0,0,1-18.39-12.63,222.39,222.39,0,0,1-16.94-15A231.53,231.53,0,0,1,693.78,775c-2.61-3.23-5.43-6.41-7.21-10.27a5.88,5.88,0,0,0-.63-1,42.65,42.65,0,0,1-6.33-10,15.92,15.92,0,0,0-3.73-5.75c-1-.94-1.47-2.58-2.11-3.94-1.85-3.87-3.77-7.71-5.46-11.65-1.92-4.49-3.54-9.12-5.36-13.66a83.72,83.72,0,0,1-4.31-14.89c-.81-4.05-2.12-8-3-12a83.28,83.28,0,0,1-1.24-8.48c-.45-4.13-.56-8.29-1.18-12.38-1.19-7.77-.62-15.57-.6-23.34a91.22,91.22,0,0,1,.78-11.44c.91-7.07,1.73-14.19,3.66-21.11,1-3.6,1.58-7.32,2.59-10.92,1.22-4.34,2.82-8.57,4.22-12.86.47-1.42,1-2.85,1.51-4.24,1.84-4.54,4-8.95,6-13.43a132.26,132.26,0,0,1,9.94-18.32c3.24-5.07,6.55-10.09,10.24-14.89a234.06,234.06,0,0,1,15.71-18.17,192.2,192.2,0,0,1,18.33-16.62,142.31,142.31,0,0,1,13.34-9.53c5.91-3.77,12-7.23,18.06-10.78a10.72,10.72,0,0,1,1.64-.78c2.68-1,3.28-1.22,2.85-3.23a24,24,0,0,0-1-2.93c-1-2.89-2-5.8-3-8.68-1.28-3.5-2.66-6.95-3.93-10.46-.75-2.08-1.37-4.22-2-6.33-.84-2.63-1.66-5.26-2.53-7.89-1.14-3.45-2.28-6.9-3.5-10.32-.63-1.78-1.43-3.5-2.23-5.42-2.31,1.4-3.87,3.3-5.59,5-1.24,1.23-2.3,2.64-3.51,3.91q-5.57,5.86-11.2,11.68c-2.81,2.92-5.67,5.79-8.46,8.72-3.73,3.9-7.4,7.87-11.12,11.78-3.12,3.27-6.31,6.47-9.43,9.73-2.4,2.5-4.74,5.07-7.13,7.59q-5.24,5.5-10.49,11c-2.41,2.53-4.84,5-7.26,7.56C663.69,511.8,658.29,517.36,653,523s-10.39,11.12-15.61,16.64c-2.13,2.25-4.37,4.39-6.53,6.61-4.14,4.28-8.25,8.59-12.38,12.88-3.52,3.66-7.07,7.29-10.57,11-5.51,5.8-11,11.66-16.49,17.45-4.94,5.17-10,10.26-14.9,15.42-3.46,3.61-6.83,7.31-10.28,10.93-2.79,2.92-5.69,5.75-8.47,8.67-3.27,3.44-6.43,7-9.71,10.41-5.28,5.5-10.65,10.92-15.94,16.42-3.36,3.49-6.62,7.07-9.94,10.6-2.72,2.89-5.43,5.81-8.22,8.64a21.48,21.48,0,0,1-9.53,5.55,24,24,0,0,1-6.81.81q-31.45,0-62.9,0h-3.19c-.43,3-.75,5.79-1.21,8.53-.57,3.36-1.26,6.7-1.9,10-.37,1.95-.73,3.9-1.15,5.84-.37,1.78-.77,3.55-1.23,5.31s-1.06,3.64-1.55,5.48a80.19,80.19,0,0,1-3.88,11.47c-1.6,3.71-2.76,7.61-4.39,11.3-2.08,4.72-4.27,9.4-6.72,13.93-2.13,4-4.69,7.71-7.06,11.54-1.36,2.22-2.68,4.48-4.12,6.65-1.31,2-2.71,3.91-4.17,5.79-4.68,6-9.31,12-14.72,17.39-3.47,3.44-6.9,6.92-10.5,10.22a165.84,165.84,0,0,1-24.52,18.84c-6.12,3.81-12.38,7.43-18.72,10.86a66.85,66.85,0,0,1-6.57,3.12c-6.67,2.74-13.43,5.31-20.26,7.62-3.75,1.27-7.66,2.08-11.45,3.24A126.62,126.62,0,0,1,273.65,845c-2.84.53-5.66,1.12-8.48,1.68l-.51.07c-4.17.37-8.34.93-12.51,1q-11.76.26-23.53,0a65.27,65.27,0,0,1-11.17-1c-2.36-.44-4.71-.55-7-.88s-4.52-.88-6.78-1.32-5.82-1.19-8-1.67c-1.43-.32-2.85-.66-4.25-1.08-4.41-1.34-8.83-2.67-13.2-4.12-3.61-1.19-7.21-2.43-10.73-3.86-3.07-1.24-6.08-2.67-9-4.18-5.7-2.92-11.5-5.71-17-9-5.68-3.43-11-7.46-16.46-11.26a114.6,114.6,0,0,1-14.4-11.88c-4.28-4.17-8.76-8.14-12.55-12.8-2.31-2.83-4.86-5.47-7.13-8.33-2.91-3.67-5.69-7.45-8.45-11.23-4.87-6.68-8.78-13.95-12.8-21.15-2.07-3.71-3.74-7.65-5.46-11.54-.58-1.29-1.09-2.61-1.57-4-1.6-4.5-3.5-8.89-5.07-13.41-.86-2.47-1.51-5-2.19-7.54-.65-2.37-1.24-4.76-1.79-7.15-.74-3.18-1.25-6.4-2-9.57q-.16-.75-.27-1.53c-.24-1.83-.73-3.64-.93-5.49-.59-5.38-1.31-10.76-1.66-16.16-.32-5-.45-10.08-.3-15.11.18-6.23.6-12.46,1.17-18.66.36-3.91,1.05-7.8,1.69-11.68.2-1.17.44-2.33.73-3.48.77-3,1.44-6.08,2.19-9.11s1.4-6,2.32-9q1.8-5.79,4-11.46a131.1,131.1,0,0,1,6.77-15.64c3.13-5.79,5.92-11.78,9.34-17.39s7.38-10.73,11.14-16a163,163,0,0,1,14-16.5c3.13-3.37,6.64-6.39,10-9.57a190.08,190.08,0,0,1,15.07-12.37,134.49,134.49,0,0,1,14.61-9.75c5.46-3.18,10.79-6.66,16.75-9,2.88-1.11,5.54-2.74,8.39-3.93,3.45-1.44,7-2.72,10.48-3.95,4-1.37,7.93-2.71,11.95-3.87s7.93-2.18,12-2.94c5-1,10.06-1.72,15.12-2.29,6.35-.71,12.73-1.16,19.1-1.67a16.93,16.93,0,0,1,2.84.18c.31,0,.66.24.92.16,2.58-.88,5.21-.4,7.81-.27,4.24.2,8.47.43,12.69.83,3.66.34,7.29.89,10.93,1.43,3.06.45,6.12,1,9.17,1.56,1.24.23,2.46.6,3.68.93a115.77,115.77,0,0,0,13.19,3.22,16,16,0,0,1,5.39,1.89c2.17,1.19,2.83,1.07,3.64-.56,2.14-4.26,4.22-8.53,6.41-12.76,2.73-5.25,5.61-10.44,8.32-15.7,3.44-6.68,6.75-13.44,10.19-20.12,3.31-6.42,6.75-12.76,10.06-19.18,3.41-6.61,6.71-13.27,10.11-19.89,2.35-4.58,4.8-9.1,7.18-13.67q3.28-6.31,6.48-12.67a1.5,1.5,0,0,0,.08-1c-1.25-3.91-2.77-7.7-4.4-11.46a127.69,127.69,0,0,1-6-15.7c-1.51-5.3-4.31-10-5.93-15.24-.94-3-2.26-5.91-3.2-8.93a2.4,2.4,0,0,0-2.34-1.66c-6.2.14-12.39.07-18.59.07-4.4,0-8.82.23-13.2-.08-6.95-.49-13-3-17.13-9-1.07-1.55-2-3.2-2.92-4.85-1.46-2.63-1.28-5.6-1.34-8.41A19.46,19.46,0,0,1,293.05,271c4.42-5.88,10.2-9,17.5-9q47.76-.06,95.54,0h29.77a21.39,21.39,0,0,1,20.22,11.44c2.4,4.31,2.74,9,2.17,13.72a16.36,16.36,0,0,1-3.76,9.15c-1.62,1.81-2.92,3.9-5.08,5.25a32.44,32.44,0,0,1-7.76,3.36c-3.49,1.07-6.95.81-10.43.83-8.16,0-16.32-.08-24.48-.11q-7.07,0-14.15,0A16.52,16.52,0,0,0,390.51,306ZM776.08,524.57a28.57,28.57,0,0,0-2.79,1.33c-4.4,2.8-9,5.3-13.28,8.3a159.88,159.88,0,0,0-15.82,12.55,143.7,143.7,0,0,0-18.79,20.87c-1.7,2.29-3.4,4.6-4.92,7-2.45,3.88-4.88,7.79-7.08,11.81-1.76,3.2-3.19,6.58-4.72,9.89-1.16,2.52-2.38,5-3.36,7.61-1.1,2.94-2.07,5.95-2.88,9-1.41,5.28-2.85,10.57-3.9,15.93a99.75,99.75,0,0,0-2,14.68c-.34,7.82-.34,15.67-.08,23.5a105.38,105.38,0,0,0,1.71,12.8c.66,4.15,1.43,8.29,2.22,12.43a41.15,41.15,0,0,0,1.19,4.35c.84,2.62,1.77,5.22,2.61,7.85.64,2,1.09,4.12,1.84,6.11.53,1.39,1.49,2.61,2.14,4,1.85,3.85,3.36,7.91,5.54,11.56,2.71,4.54,5.24,9.19,8.29,13.57a143.93,143.93,0,0,0,10.46,13.57,137.79,137.79,0,0,0,20.66,19.59c4,3,8,6.09,12.25,8.69a137.82,137.82,0,0,0,21.76,11.24c3.38,1.31,6.73,2.72,10.16,3.9,3.21,1.1,6.5,2,9.76,2.92,1.76.5,3.52,1,5.31,1.35a68.7,68.7,0,0,0,8.71,1.51c4,.3,7.86,1.61,11.95,1.54,10-.18,20,.77,29.89-1,3.14-.55,6.34-.8,9.49-1.28a50.25,50.25,0,0,0,5.85-1.24c4-1.14,7.9-2.37,11.82-3.62q4.18-1.33,8.3-2.85c1.48-.55,2.89-1.27,4.32-1.94,4-1.86,8.2-3.5,12.06-5.67,5-2.82,9.94-5.91,14.71-9.16a136.35,136.35,0,0,0,18.32-15.2A145,145,0,0,0,969.09,736c3.3-5.19,6.15-10.69,9-16.16a88.72,88.72,0,0,0,4.51-10.23c1.53-4.16,2.75-8.44,4.06-12.68.91-2.94,1.93-5.87,2.58-8.87.86-3.95,1.52-8,2.09-12a82.33,82.33,0,0,0,.93-9.78c.24-11.41.54-22.81-1.71-34.13-.91-4.59-1.38-9.23-3-13.69-1.32-3.71-2.14-7.6-3.34-11.35-.79-2.48-2-4.85-2.8-7.32-.81-2.3-2.33-4.38-2.27-7a1.86,1.86,0,0,0-.52-1c-2-2.27-3.27-5-4.69-7.65a144.52,144.52,0,0,0-15.4-22.59,146.38,146.38,0,0,0-18.23-18.53,138.83,138.83,0,0,0-15.46-11.42c-3.86-2.48-8-4.62-11.9-7-1-.59-1.81-1.46-2.76-2.13a4,4,0,0,0-2.88-1,3.1,3.1,0,0,1-1.52-.28c-2.52-1.12-5-2.43-7.55-3.38-3.57-1.33-7.22-2.45-10.86-3.55-4-1.22-8-2.49-12.12-3.42a117.65,117.65,0,0,0-12-2c-4.28-.51-8.59-.91-12.89-1-6.46-.12-12.93-.45-19.38.65-3.83.66-7.73.84-11.6,1.28-1.67.2-2,.64-1.44,2.19.68,2,1.56,4,2.23,6,1.76,5.31,3.42,10.66,5.18,16,1.35,4.06,2.79,8.1,4.19,12.14.44,1.28.87,2.55,1.31,3.82q2.21,6.38,4.39,12.75c.74,2.18,1.41,4.38,2.15,6.54,1.63,4.73,3.32,9.43,4.93,14.17.58,1.71.67,3.68,1.55,5.2,1.6,2.72,2.21,5.75,3.3,8.62,1,2.58,1.75,5.24,2.66,7.85,1.13,3.22,2.34,6.42,3.45,9.65,1.23,3.61,2.37,7.24,3.57,10.85.8,2.39,1.65,4.76,2.44,7.15.72,2.17,1.33,4.38,2.09,6.53a129.05,129.05,0,0,1,4.43,13,17.47,17.47,0,0,1-.86,10.8c-1.7,4.19-4,8.08-8.14,10.61-3.83,2.37-7.71,4.36-12.38,4-1.59-.1-3.27.14-4.76-.3a36.44,36.44,0,0,1-6.27-2.69,18.33,18.33,0,0,1-6.29-5.34,31.8,31.8,0,0,1-4.78-10c-.76-2.42-1.46-4.85-2.29-7.24-1.14-3.29-2.43-6.52-3.57-9.8-1.28-3.68-2.44-7.4-3.7-11.08-.75-2.16-2-4.24-2.29-6.45-.33-2.77-1.84-5-2.48-7.65-.86-3.51-2.49-6.83-3.67-10.27-1.71-5-3.31-10-5-14.93-1.36-4-2.77-8.08-4.16-12.12-.46-1.34-.9-2.68-1.37-4q-2.29-6.63-4.6-13.24c-.87-2.47-1.77-4.93-2.62-7.4-.77-2.24-1.51-4.48-2.26-6.73-.85-2.53-1.68-5.08-2.55-7.61s-1.75-4.93-2.62-7.4C778.23,530.65,777.22,527.81,776.08,524.57Zm-590.23-7.22c-1.42.87-2.65,1.71-4,2.4-2,1.06-4.24,1.72-6.28,2.68-3.14,1.48-6,3.62-9,5.25a114.5,114.5,0,0,0-20.16,13.86c-1.51,1.27-3.23,2.31-4.64,3.69-3.8,3.72-7.61,7.46-11.19,11.39a126.78,126.78,0,0,0-17.72,24c-2.1,3.83-4.18,7.66-6.21,11.53-1.17,2.24-2.19,4.55-3.29,6.82-.54,1.11-1.45,2-1.39,3.45a10.66,10.66,0,0,1-1,3.4c-1.59,5-3.4,9.89-4.71,14.94a132,132,0,0,0-2.91,14.77,122.07,122.07,0,0,0-1.1,14.3c-.14,7.58-.25,15.15.75,22.73.53,4,1.21,8,1.86,12,.24,1.41.51,2.82.87,4.21.84,3.22,1.65,6.45,2.62,9.64,1.08,3.56,2.18,7.12,3.53,10.58,1.43,3.68,3.2,7.22,4.74,10.85a113.58,113.58,0,0,0,8.4,15.16,135.78,135.78,0,0,0,8.66,12.18,137.47,137.47,0,0,0,12.45,14.06,153.13,153.13,0,0,0,13.65,11.89,158.41,158.41,0,0,0,16.1,11,106.92,106.92,0,0,0,16.61,8.23c1.85.69,3.54,1.8,5.41,2.42,5.12,1.7,10.27,3.27,15.44,4.82,2,.59,4,1.06,6,1.47,3,.59,6,1.14,9,1.61a67,67,0,0,0,9,1.14c8.64.16,17.27.11,25.91,0a45.24,45.24,0,0,0,5.89-.61c2.83-.41,5.66-.9,8.48-1.39,2-.36,4.11-.66,6.1-1.22,4-1.13,8-2.6,12-3.62a93.7,93.7,0,0,0,14.44-5.38c5-2.14,9.69-4.78,14.42-7.38A105.07,105.07,0,0,0,331.1,773c3.73-3.09,7.6-6.06,11-9.46s7.25-6.2,10.06-10.25c4.1-5.91,9-11.28,13.17-17.13a87.6,87.6,0,0,0,6.09-10.78c1.66-3.22,3.16-6.52,4.61-9.84,1.23-2.83,2.34-5.71,3.4-8.59.8-2.16,1.38-4.4,2.19-6.55a86.61,86.61,0,0,0,4.91-20.32,11.88,11.88,0,0,1,.41-1.86c.83-3,.53-3.46-2.7-3.46q-25.9,0-51.8,0-47,0-94.06,0a25,25,0,0,1-7.74-1,21.32,21.32,0,0,1-11.74-9.19,21.85,21.85,0,0,1-2.84-7.5,21.6,21.6,0,0,1,2.17-14.32c3.82-7.58,7.82-15.08,11.7-22.64,2.57-5,4.92-10.12,7.6-15,3.5-6.43,6.78-13,10.15-19.45,2.53-4.87,5-9.75,7.53-14.63q3.58-7,7.17-14,6.82-13.2,13.64-26.39c2.39-4.64,4.79-9.27,7.16-13.92.86-1.7.56-2.41-1.33-3-2.82-.81-5.66-1.6-8.52-2.29-1.85-.44-3.75-.68-5.62-1-2.73-.52-5.43-1.21-8.17-1.57-3.64-.46-7.31-.73-11-1-9.28-.62-18.52.32-27.76,1a4.2,4.2,0,0,0-.71.11c-2.64.53-5.29,1-7.92,1.61-3,.64-6.08,1.13-9,2-5.18,1.51-10.29,3.27-15.46,4.87A5.29,5.29,0,0,1,185.85,517.35Zm321.73,92.92c1.47.35,2-.58,2.65-1.24,2.33-2.39,4.62-4.82,6.93-7.22,3.68-3.81,7.39-7.58,11-11.41,5.14-5.4,10.22-10.87,15.36-16.27,5.54-5.8,11.12-11.57,16.68-17.35.94-1,1.94-1.88,2.87-2.86,4.74-5,9.44-10.06,14.2-15.06,4-4.21,8-8.37,12.07-12.55q7.75-8.05,15.53-16.09c2.25-2.34,4.45-4.73,6.69-7.09q8.43-8.89,16.89-17.78c3.4-3.57,6.86-7.07,10.26-10.63,2.7-2.81,5.33-5.69,8-8.51,3.55-3.74,7.12-7.44,10.67-11.17,3.07-3.24,6.09-6.52,9.18-9.73,4.39-4.55,8.87-9,13.25-13.57,4.65-4.86,9.23-9.79,13.86-14.68s9.17-9.65,13.78-14.46c2.89-3,5.82-6,8.73-9,2.21-2.28,4.44-4.55,6.62-6.85a11,11,0,0,0,1.1-1.82c-4.77-.16-9.22-.38-13.67-.43-3.27,0-6.54.26-9.81.26l-276.68,0c-.77,0-1.54.09-2.69.16,14.47,37.82,28.73,75.37,43.2,112.84S493,572.79,507.58,610.27ZM385,414.35c-.61,1.23-1,2.07-1.45,2.89-2.81,5.39-5.65,10.76-8.44,16.16-1.68,3.24-3.23,6.55-4.92,9.79-2.56,4.91-5.25,9.75-7.79,14.67-3.29,6.4-6.45,12.86-9.73,19.27-2.64,5.14-5.37,10.23-8,15.35a2.17,2.17,0,0,0,.83,3.26c2.87,2,5.7,4,8.57,6a143.08,143.08,0,0,1,16.72,13.73c4.7,4.4,9.22,9,13.52,13.83a196.6,196.6,0,0,1,25.44,36.61c2,3.66,3.88,7.42,5.55,11.25,2.17,5,4.13,10.12,6.08,15.22.93,2.44,1.66,5,2.43,7.46.84,2.72,1.64,5.44,2.41,8.18.39,1.36.72,2.73,1,4.11.43,2.18.78,4.38,1.19,6.56.63,3.35,1.37,6.68,1.89,10.05.37,2.33.67,2.8,3,2.8q16.54,0,33.1,0c1.95,0,2.48-.78,1.8-2.52-1-2.59-2-5.17-3-7.76-2-5.08-4-10.16-5.89-15.26-.47-1.25-.55-2.65-1.07-3.87-1.06-2.55-2.31-5-3.44-7.54-.49-1.08-.94-2.18-1.34-3.3-1.48-4.09-2.87-8.22-4.42-12.3-1.62-4.28-3.4-8.5-5.09-12.75q-2-5.19-4-10.42c-1.12-2.94-2.19-5.91-3.29-8.86-1.18-3.18-2.34-6.36-3.57-9.52-1.53-3.93-3.15-7.82-4.68-11.75-1.18-3-2.26-6.08-3.43-9.1-1.4-3.6-2.88-7.17-4.25-10.77-2.6-6.83-5.13-13.68-7.72-20.51-1.51-4-3.08-7.92-4.61-11.89q-1.84-4.78-3.67-9.59c-1.43-3.77-2.81-7.57-4.25-11.33-1.16-3-2.38-6-3.58-9-1.1-2.73-2.27-5.44-3.3-8.19-.88-2.38-1.51-4.84-2.39-7.22-1.5-4-3.08-8-4.68-11.91A9.69,9.69,0,0,0,385,414.35ZM324,533.65a13.71,13.71,0,0,0-1.36,1.7q-5.75,11.05-11.45,22.14c-5.12,10-10.17,20-15.32,30-3.66,7.11-7.45,14.15-11.14,21.24-2.85,5.47-5.65,11-8.47,16.45-.62,1.21-1.25,2.41-1.79,3.65-.74,1.71-.16,2.61,1.67,2.65.88,0,1.76,0,2.64,0h99.57c2,0,4,0,6,0s2.43-.59,2-2.51c-.52-2.4-1.07-4.79-1.73-7.15-1.36-4.82-2.83-9.6-4.2-14.41-1.72-6.06-4.5-11.7-7.19-17.32a124.39,124.39,0,0,0-9.89-16.79,162.85,162.85,0,0,0-12.84-16.42,122.62,122.62,0,0,0-14.17-13.74c-1.68-1.34-3.22-2.86-4.93-4.16C329,537.13,326.49,535.45,324,533.65Z"/></g></g></svg>