<svg xmlns="http://www.w3.org/2000/svg" viewBox="0 0 1080 1080"><defs><style>.cls-1{fill:#87d150;}.cls-2{fill:#2b8a28;}.cls-3{fill:#b4fab1;}</style></defs><g id="Layer_2" data-name="Layer 2"><g id="pink"><rect class="cls-1" width="1080" height="1080" rx="106.19"/></g><g id="Layer_1-2" data-name="Layer 1"><path class="cls-2" d="M996.5,872.5H79.5V307.31h74.41V229.16c5.28-.22,9.9-.38,14.52-.6,31.71-1.51,63.43-3,95.13-4.56,58-2.92,113.32,7,166.81,27.4,35.68,13.62,69.95,29.75,103.71,46.89,2.91,1.47,4.84,1.6,7.86,0,37.61-19.31,76-37.13,116.23-51.49,51.42-18.36,104.57-25.65,159.58-22.61,33.44,1.86,66.93,3.08,100.4,4.6,1,0,1.92.17,3.53.31v77.66H996.5Zm-103-617.41c-2-.11-3.33-.2-4.66-.26-25.42-1.14-50.88-1.78-76.25-3.52-48.44-3.33-95.25,2.6-140.67,18.49-39.07,13.67-76.25,30.9-112.87,49.29-5.4,2.71-7,5.76-7,11.27q.3,124.59.14,249.19V832.74c2.8-1.19,4.56-1.92,6.31-2.69,29.3-12.87,58.25-26.48,88-38.44,40.31-16.22,82.41-26.63,126.85-26.06,33.11.42,66.2,1.88,99.3,2.8,6.79.19,13.59,0,20.85,0ZM182.61,768.59c2.6,0,4.7.06,6.8,0,29.58-1,59.16-1.78,88.72-3,31.1-1.29,61.84.73,92.09,7.61,43.82,10,84.42,27.34,124.5,45.9,9.53,4.42,19,9,29.16,13.8v-4.8q0-250.37.07-500.72c0-3.25-.91-5-4.18-6.72C483.3,302,446.25,284.44,407.08,271c-35.05-12.06-70.86-21.06-108.69-20.18-27.61.65-55.2,2.15-82.81,3.23-10.89.42-21.79.72-33,1.09ZM921.8,794.52c-3.71,0-6.8.12-9.88,0C879,793,846.15,791.41,813.26,790c-36.22-1.52-72.09.9-107.15,9.81-29.71,7.55-57.73,19.2-85.53,31.26-11,4.79-22,9.76-33,14.65l.32.82H968.47V333.29H921.8ZM489.37,846.59c-1.62-1-2.17-1.42-2.81-1.71-33.12-14.71-66.09-29.73-101-40.61a316.71,316.71,0,0,0-99.28-14.45c-31.34.45-62.64,2.64-94,3.76-12.46.44-25,.07-38.3.07V333.4H107.7V846.59Z"/><path class="cls-3" d="M893.48,255.09V768.38c-7.26,0-14.06.16-20.85,0-33.1-.92-66.19-2.38-99.3-2.8-44.44-.57-86.54,9.84-126.85,26.06-29.73,12-58.68,25.57-88,38.44-1.75.77-3.51,1.5-6.31,2.69V579.55q0-124.59-.14-249.19c0-5.51,1.58-8.56,7-11.27,36.62-18.39,73.8-35.62,112.87-49.29,45.42-15.89,92.23-21.82,140.67-18.49,25.37,1.74,50.83,2.38,76.25,3.52C890.15,254.89,891.49,255,893.48,255.09Z"/><path class="cls-3" d="M182.61,768.59V255.09c11.18-.37,22.08-.67,33-1.09,27.61-1.08,55.2-2.58,82.81-3.23,37.83-.88,73.64,8.12,108.69,20.18,39.17,13.49,76.22,31,112.69,49.69,3.27,1.68,4.18,3.47,4.18,6.72q-.12,250.36-.07,500.72v4.8c-10.18-4.82-19.63-9.38-29.16-13.8-40.08-18.56-80.68-35.94-124.5-45.9-30.25-6.88-61-8.9-92.09-7.61-29.56,1.23-59.14,2-88.72,3C187.31,768.65,185.21,768.59,182.61,768.59Z"/><path class="cls-3" d="M921.8,794.52V333.29h46.67V846.57H587.94l-.32-.82c11-4.89,21.92-9.86,33-14.65,27.8-12.06,55.82-23.71,85.53-31.26,35.06-8.91,70.93-11.33,107.15-9.81,32.89,1.38,65.77,3,98.66,4.48C915,794.64,918.09,794.52,921.8,794.52Z"/><path class="cls-3" d="M489.37,846.59H107.7V333.4H154V793.65c13.34,0,25.84.37,38.3-.07,31.32-1.12,62.62-3.31,94-3.76a316.71,316.71,0,0,1,99.28,14.45c34.94,10.88,67.91,25.9,101,40.61C487.2,845.17,487.75,845.6,489.37,846.59Z"/></g></g></svg>