<svg xmlns="http://www.w3.org/2000/svg" viewBox="0 0 1080 1080"><defs><style>.cls-1{fill:#87d150;}.cls-2{fill:#2b8a28;}.cls-3{fill:#b4fab1;}</style></defs><g id="Layer_2" data-name="Layer 2"><g id="pink"><rect class="cls-1" width="1080" height="1080" rx="106.19"/></g><g id="Layer_3" data-name="Layer 3"><path class="cls-2" d="M698,855.73H379.25c-.65,10.37-1.1,19.3-1.79,28.2-3.08,40-18.49,53.17-59.49,53.5-36.21.28-53.94-15.43-56.21-52.72-.73-12.11-11.34-29.5-21.92-34.06-34.71-15-48.29-40-48.19-75.74.23-83.12.07-166.24.07-248.54-88.89-26.65-91.35-30.72-88.39-130.65,1.71-57.43,56.83-44.26,88.41-73.75,0-24.09-.76-56.22.18-88.31,1.38-46.61,26.39-72.1,73-72.24q274.16-.82,548.31,0c46.33.15,71.29,26,72.67,72.73.92,30.8.18,61.66.18,89.91,29.68,15.69,67.91,23.69,81.49,46.41,14.44,24.15,9.25,62.65,5.92,94.17-5.06,47.75-50.81,44.65-87.39,61.52,0,74.05,0,151.6,0,229.15,0,66.68-7.05,77.32-67.47,102.49-10.21,72.33-18.25,81.83-67.32,79.41C711.43,935.26,702.92,922.85,698,855.73ZM251.33,246.34c0,91.7,1.17,174.79-.6,257.82-.67,31.81,12.69,41.69,42,44.58a2501.38,2501.38,0,0,0,494.53-.26c27.78-2.77,40.18-12.82,39.52-42.59-1.63-73.77-1.76-147.63.11-221.39.71-28-9.67-38.1-36.13-39.44C706.35,240.79,622,231.3,537.6,231.6,444.06,231.94,350.56,240.85,251.33,246.34Zm96.34,555.32c37.68-.67,68.72-32.41,68.07-69.62C415.1,696.2,381,663.57,345,664.29c-36.85.73-68.22,33.44-67.54,70.44C278.12,772.28,309.64,802.32,347.67,801.66ZM800.3,732.31c-.84-37.3-33.23-68.79-70-68-36.56.74-68.77,33.88-68.27,70.24.51,37.19,32.44,67.65,70.36,67.12C770.51,801.1,801.13,769.84,800.3,732.31ZM669.43,207.94l-.28-8.21H408.25l.15,8.21ZM166,507.47c39,8.43,25.14-22.9,25.34-39.07,1.43-118.51,1-118.51-23.14-118.87C189.7,401.9,191.68,454.16,166,507.47ZM911.68,351.14l-7-7.95c-6.16,6.6-17.38,13-17.65,19.83-1.66,42.56-1.77,85.24,0,127.79.29,6.9,12.52,13.3,19.23,19.94C887.85,469.36,887.18,388.72,911.68,351.14Z"/><path class="cls-3" d="M251.33,246.34c99.23-5.49,192.73-14.4,286.27-14.74,84.37-.3,168.75,9.19,253.18,13.46,26.46,1.34,36.84,11.4,36.13,39.44-1.87,73.76-1.74,147.62-.11,221.39.66,29.77-11.74,39.82-39.52,42.59a2501.38,2501.38,0,0,1-494.53.26c-29.33-2.89-42.69-12.77-42-44.58C252.5,421.13,251.33,338,251.33,246.34Z"/><path class="cls-3" d="M347.67,801.66c-38,.66-69.55-29.38-70.24-66.93-.68-37,30.69-69.71,67.54-70.44,36-.72,70.13,31.91,70.77,67.75C416.39,769.25,385.35,801,347.67,801.66Z"/><path class="cls-3" d="M800.3,732.31c.83,37.53-29.79,68.79-67.92,69.32-37.92.53-69.85-29.93-70.36-67.12-.5-36.36,31.71-69.5,68.27-70.24C767.07,663.52,799.46,695,800.3,732.31Z"/><path class="cls-3" d="M669.43,207.94h-261l-.15-8.21h260.9Z"/></g></g></svg>