<svg xmlns="http://www.w3.org/2000/svg" viewBox="0 0 1080 1080"><defs><style>.cls-1{fill:#87d150;}.cls-2{fill:#2b8a28;}.cls-3{fill:#b4fab1;}</style></defs><g id="Layer_2" data-name="Layer 2"><g id="bg"><rect class="cls-1" width="1080" height="1080" rx="106.19"/></g><g id="cal_day" data-name="cal day"><path class="cls-2" d="M96.92,141.22h74.34c0,24.84-.24,49.16.07,73.47.32,25.12,16.46,46.32,39.57,52.84,36.23,10.22,70.21-14.69,71.48-52.92.65-19.46.15-39,.17-58.44,0-4.86,0-9.71,0-15.48,28.64,0,55.93,0,83.22,0,2.39,0,4.78.41,8.45.75,0,23.64-.25,46.75.06,69.85.39,28.62,16.12,49.77,41.48,56.56,34.38,9.21,68.46-15.44,69.73-51.07.73-20.7.2-41.45.24-62.18V141.57h91.82c0,16.34-.18,32.73.06,49.13.16,11.56-.55,23.4,1.65,34.62a54.81,54.81,0,0,0,58.79,44.45,55.63,55.63,0,0,0,51-54.72c.48-20.3.08-40.62.15-60.93,0-4,.35-8.07.57-12.76h91.28c0,24.74-.26,49,.07,73.35.34,25.06,16.27,45.87,39.67,52.82,35.95,10.65,71-15.55,71.77-54.1.47-23.6.08-47.21.08-72.75h73.47c.27,4.62.72,8.57.72,12.52q.07,397.32,0,794.65c0,38.07-24,62.14-62.15,62.16q-373.71.13-747.41,0c-36.71,0-60.41-24.3-60.42-61.09q0-397.32,0-794.63ZM893.78,353.51H169.51v13.25q0,253.68,0,507.36c0,39.65,23.56,63,63.65,63q298.5,0,597,0c40.67,0,63.54-22.57,63.57-62.82q.12-254.32,0-508.66Z"/><path class="cls-2" d="M669,168.22c0,14.91.25,29.83-.07,44.73-.44,20.6-15.37,36.27-34.55,36.78-19.75.53-36.14-15.11-36.47-36.06q-.72-45.34,0-90.7c.34-20.58,15.95-35.38,35.71-35.23s34.77,15.1,35.3,35.76C669.35,138.4,669,153.31,669,168.22Z"/><path class="cls-2" d="M872.25,168.22c0,14.5.19,29,0,43.49-.35,22.26-15.38,38.08-35.77,38-20.06-.08-35-16.27-35.18-38.54q-.28-42.85,0-85.72c.15-22.54,14.87-37.86,35.69-37.72,20.29.14,34.81,15.2,35.24,37C872.47,139.23,872.24,153.73,872.25,168.22Z"/><path class="cls-2" d="M465.5,169.38c0,14.91.29,29.82-.07,44.71-.47,19.82-15.41,35.09-34.21,35.55-19.71.49-35.94-14.25-36.31-34.64-.57-31-.46-62.1.09-93.14.36-19.86,15.81-34.14,35.29-34.08s34.49,14.51,35.11,34.41C465.88,137.91,465.49,153.65,465.5,169.38Z"/><path class="cls-2" d="M262,168.12c0,15.32.29,30.65-.08,46-.51,20.6-15.67,35.57-35.38,35.55-19.43,0-34.83-15.35-35.07-35.92q-.56-45.33,0-90.66c.26-20.73,15.4-35.3,35.46-35.22s34.64,14.8,35,35.58C262.27,138.31,262.05,153.22,262,168.12Z"/><path class="cls-3" d="M893.78,353.51v12.13q0,254.33,0,508.66c0,40.25-22.9,62.8-63.57,62.82q-298.48.11-597,0c-40.09,0-63.64-23.4-63.65-63q0-253.68,0-507.36V353.51ZM284,538.15,374,554.06c10.62-38,24.24-49.56,51.41-45.3,16.84,2.64,28.84,16.63,26.88,34.57A54.22,54.22,0,0,1,441.77,569c-11.07,14.57-28,15.66-45.9,14.08L391,650.43c47.37-8.8,67.54-.86,75.26,28.37,7.82,29.65-3.73,59.07-28.18,66.38-10,3-22.5,2.65-32.52-.49-21.94-6.87-25.13-28.53-31.34-47.79l-95.56,12.69c14,48.15,41.7,80.85,90,92,35.5,8.19,71.7,8.67,107.31.33,47.23-11.07,77-40.78,87-88.39,10.23-48.44-9.68-88.65-57.28-101.89-1.48-.41-2.89-1.06-5.35-2,7-5.21,14.58-8.8,19.15-14.72,9.43-12.22,20.78-24.63,25.07-38.84,12.84-42.64-12.63-85.17-58.41-99.05a221.71,221.71,0,0,0-125.13-1.51C319.48,467.06,295,495.83,284,538.15ZM784.46,448c-25.07,0-49.42-.29-73.75.36-3.26.09-6.85,4.61-9.48,7.76-12.68,15.14-22.76,33.67-38.15,45-20.63,15.23-45.35,24.92-68.2,37.19-3.3,1.77-8.51,4.59-8.57,7-.65,24.25-.39,48.53-.39,74.49C623.64,609.8,656,593.6,687.48,570.11V800.25h97Z"/><path class="cls-2" d="M284,538.15c11-42.32,35.48-71.09,77.06-82.6a221.71,221.71,0,0,1,125.13,1.51c45.78,13.88,71.25,56.41,58.41,99.05C540.31,570.32,529,582.73,519.53,595c-4.57,5.92-12.17,9.51-19.15,14.72,2.46.92,3.87,1.57,5.35,2,47.6,13.24,67.51,53.45,57.28,101.89-10,47.61-39.81,77.32-87,88.39-35.61,8.34-71.81,7.86-107.31-.33-48.33-11.16-76.07-43.86-90-92l95.56-12.69c6.21,19.26,9.4,40.92,31.34,47.79,10,3.14,22.52,3.48,32.52.49,24.45-7.31,36-36.73,28.18-66.38-7.72-29.23-27.89-37.17-75.26-28.37l4.9-67.36c17.85,1.58,34.83.49,45.9-14.08a54.22,54.22,0,0,0,10.47-25.66c2-17.94-10-31.93-26.88-34.57-27.17-4.26-40.79,7.3-51.41,45.3Z"/><path class="cls-2" d="M784.46,448V800.25h-97V570.11C656,593.6,623.64,609.8,585.92,619.85c0-26-.26-50.24.39-74.49.06-2.45,5.27-5.27,8.57-7,22.85-12.27,47.57-22,68.2-37.19,15.39-11.37,25.47-29.9,38.15-45,2.63-3.15,6.22-7.67,9.48-7.76C735,447.68,759.39,448,784.46,448Z"/></g></g></svg>