<svg xmlns="http://www.w3.org/2000/svg" viewBox="0 0 1080 1080"><defs><style>.cls-1{fill:#87d150;}.cls-2{fill:#2b8a28;}.cls-3{fill:#b4fab1;}</style></defs><g id="Layer_2" data-name="Layer 2"><g id="bg"><rect class="cls-1" width="1080" height="1080" rx="106.19"/></g><g id="Layer_11" data-name="Layer 11"><path class="cls-2" d="M405,124.45c155.87.25,281.3,126,280.9,281.72C685.52,560.63,559.09,686.5,404.85,686,249,685.49,124.19,559.82,124.49,403.75,124.79,249.81,251,124.21,405,124.45ZM180.38,405.76C180.05,530.87,283.55,633,410.11,630c125.38-2.93,222.33-104.94,219.72-231.41-2.54-123.17-105.52-220.84-230.1-218.21C277.38,183,177.74,285.33,180.38,405.76Z"/><path class="cls-2" d="M575.65,654.85c14.69-12.77,29.46-24.26,42.58-37.39,12.9-12.9,24.14-27.48,36.66-42,15.15,12.48,30.7,25.24,46.19,38.06q110.25,91.27,220.41,182.65c41.58,34.7,44,94.54,6.09,132.26-37.28,37.1-97.31,34.19-131.6-7.05Q688,791.64,580.67,661.37C578.92,659.26,577.32,657,575.65,654.85Z"/><path class="cls-3" d="M180.38,405.76c-2.64-120.43,97-222.8,219.35-225.38,124.58-2.63,227.56,95,230.1,218.21C632.44,525.06,535.49,627.07,410.11,630,283.55,633,180.05,530.87,180.38,405.76Zm72.19-136.48c86-69.69,197.65-54.78,261.79-1.69,40.3,33.35,65.32,75.63,73.72,127.26s-2.39,99.62-28.72,144.42C608.71,479.1,624,411.34,598,337.77c-27.68-78.39-85.22-124.49-167.53-135.47C360.13,192.92,300.49,217,252.57,269.28Z"/><path class="cls-2" d="M252.57,269.28c47.92-52.24,107.56-76.36,177.9-67,82.31,11,139.85,57.08,167.53,135.47,26,73.57,10.71,141.33-38.64,201.5,26.33-44.8,37.11-92.84,28.72-144.42s-33.42-93.91-73.72-127.26C450.22,214.5,338.54,199.59,252.57,269.28Z"/></g></g></svg>