<svg xmlns="http://www.w3.org/2000/svg" viewBox="0 0 1080 1080"><defs><style>.cls-1{fill:#87d150;}.cls-2{fill:#b4fab1;}.cls-3{fill:#2b8a28;}</style></defs><g id="Layer_2" data-name="Layer 2"><g id="bg"><rect class="cls-1" width="1080" height="1080" rx="106.19"/></g><g id="Layer_12" data-name="Layer 12"><path d="M540,737.81,479.7,785.66q-62.18,49.4-124.36,98.77c-6,4.8-11.91,4.74-18-.08Q242,808.56,146.51,732.82A15.7,15.7,0,0,1,140,719.47q.13-87,.09-174,0-108.33,0-216.67V261.64c0-5.42,1.74-10,6.81-12.53,5.4-2.71,10.32-1.55,15,2.16q75,59.64,150,119.18c11.42,9.06,22.85,18.1,34.56,27.38,12.95-10.28,25.48-21,38.86-30.56,8.37-6,11-11.77,10.2-22.74-2.58-35.6,7.89-68.2,30.45-95.9,38.33-47.06,88.46-65.84,147.42-52.43,60.73,13.8,97.83,53.74,111.51,114.68,3.32,14.79,4.08,29.87,1.09,45a7,7,0,0,0,2,5.61c15,12.14,30.09,24,45.58,36.34,6.91-5.44,13.84-10.85,20.72-16.31L901.1,264.94q8.76-7,17.52-13.93c4.47-3.56,9.35-4.65,14.52-1.91,4.91,2.59,6.8,6.86,6.8,12.47q-.11,228.4.06,456.82c0,6.58-2.18,11.09-7.24,15.1q-94.5,74.85-188.84,149.88c-7.87,6.25-12.63,6.16-20.38,0q-89.29-70.92-178.61-141.82C543.44,740.38,541.9,739.26,540,737.81ZM720.91,849c0-36.6,0-72,0-107.42q.09-158.86.06-317.72a8.69,8.69,0,0,0-3-5.88c-12.36-10.11-24.91-20-37.43-29.89a35.52,35.52,0,0,0-3.41-2.17,14.76,14.76,0,0,0-1,1.58c-13,30.11-30.51,57.64-50.07,83.79-24.53,32.79-49.77,65-74.77,97.49-5.5,7.14-15.1,6.59-20.86-.88-12.82-16.62-25.63-33.26-38.58-49.8-26.65-34-53-68.25-73.7-106.39-4.83-8.9-9-18.15-13.64-27.55-13.63,10.82-27,21.65-40.6,32.07-3.71,2.84-5.09,5.76-5.07,10.39.2,38.89.17,77.78.17,116.67q0,150.53,0,301a38.65,38.65,0,0,0,.5,4.25c1.27-.91,2-1.37,2.62-1.89l66.05-52.47q51.16-40.63,102.35-81.26c6.65-5.27,12.16-5.42,18.36-.49Q615,764.89,681,817.37C694,827.7,707.07,838,720.91,849ZM914.38,287.25c-1.32.84-2.19,1.29-3,1.89Q884.7,310.33,858,331.55q-54.06,42.85-108.06,85.79a10.09,10.09,0,0,0-3.59,6.74c-.21,29.51-.1,59-.09,88.55q0,91.93,0,183.88c0,3.61.82,4.91,4.6,4.73,13.51-.62,27-1,40.55-1.4,7.66-.22,13.14,4.68,13.65,12,.47,6.91-4.4,12.48-11.86,13.14-7.77.68-15.57,1.22-23.36,1.47s-15.44,0-23.18,0V848.81L773.7,827.3q68.73-54.56,137.41-109.14c1.4-1.12,3.25-2.72,3.37-4.21.41-5.25.16-10.56.16-16.37-2.43.84-4,1.43-5.64,1.94-13.06,4.08-26.09,8.28-39.21,12.15-7.13,2.1-13.62-1.55-15.68-8.24-2.14-6.93,1.42-13.65,8.67-15.95,17.14-5.44,34.31-10.77,51.6-16.18Zm-580.59,277a7.76,7.76,0,0,0,.1-1.43c0-45.31-.09-90.63.08-136,0-4.83-1.42-7.87-5.22-10.87q-79.46-62.79-158.7-125.85c-1.23-1-2.54-1.85-4.36-3.17V589.93c9.72-3.16,19.06-6.3,28.46-9.22,8.61-2.68,15.3.41,17.57,7.85S210,602.12,201.44,605c-10.53,3.51-20.91,7.43-31.44,10.91-3.58,1.18-4.56,3.12-4.54,6.79q.19,43.49-.07,87c0,4.28,1.39,6.91,4.7,9.52Q250.13,782.49,330,846c1,.78,2.1,1.37,3.62,2.36V582.47c-3.38,1.35-6.43,3.46-9.63,3.71-16.77,1.31-33.56,2.28-50.36,3.12-7.5.37-12.88-4.58-13.32-11.6S264.44,565,272,564.39c15.55-1.25,31.12-2.41,46.71-2.95C323.53,561.27,328.43,563.2,333.79,564.26ZM541.25,539.9c1.66-2.06,3.08-3.78,4.46-5.54,11.79-15,23.7-29.94,35.33-45.08,24.32-31.66,48.4-63.51,66.35-99.42,11.31-22.61,17.73-45.85,13.41-71.73-9.11-54.54-58.14-99.13-113.28-100.37-53.44-1.21-92.84,22.57-116.21,70.74-13.24,27.32-16,56.12-3.31,84.62,7.1,15.95,14.57,32,24.25,46.46,18.93,28.21,39.37,55.42,59.52,82.8C521.11,515.07,531.24,527.2,541.25,539.9Z"/><path class="cls-2" d="M720.91,849C707.07,838,694,827.7,681,817.37Q615,764.92,548.93,712.45c-6.2-4.93-11.71-4.78-18.36.49q-51.2,40.6-102.35,81.26l-66.05,52.47c-.65.52-1.35,1-2.62,1.89a38.65,38.65,0,0,1-.5-4.25q0-150.52,0-301c0-38.89,0-77.78-.17-116.67,0-4.63,1.36-7.55,5.07-10.39,13.64-10.42,27-21.25,40.6-32.07,4.63,9.4,8.81,18.65,13.64,27.55,20.68,38.14,47.05,72.37,73.7,106.39,12.95,16.54,25.76,33.18,38.58,49.8,5.76,7.47,15.36,8,20.86.88,25-32.44,50.24-64.7,74.77-97.49,19.56-26.15,37-53.68,50.07-83.79a14.76,14.76,0,0,1,1-1.58,35.52,35.52,0,0,1,3.41,2.17C693.1,398,705.65,407.84,718,418a8.69,8.69,0,0,1,3,5.88q.12,158.87-.06,317.72C720.9,777,720.91,812.37,720.91,849ZM401,568.51c-9.79-.33-15.16,3.92-16.27,10.2a12.7,12.7,0,0,0,9.16,14.44q24,6.63,48.14,13c6.93,1.82,13.37-1.74,15.4-8.09,2.14-6.69-1.07-13.33-8-15.95-4.7-1.77-9.49-3.37-14.33-4.68C422.77,574.08,410.35,570.94,401,568.51Zm113.32,44.81c-6.79,0-11.47,3.41-13.22,8.52s-.46,10.74,4.13,13.93q21.32,14.81,43,29.12c5.62,3.69,13.25,1.56,16.92-4,3.52-5.33,2.6-13-2.76-16.79-14-9.8-28.29-19.29-42.57-28.75C517.87,614.06,515.35,613.68,514.33,613.32Zm93.95,75.09c-.21,5.23,2,9.68,6.73,11.29,17.17,5.86,34.44,11.43,51.87,16.46,6.18,1.78,12.4-3.34,13.8-9.76,1.37-6.21-2-12.73-7.88-14.64q-24.16-7.8-48.45-15.29A12.31,12.31,0,0,0,608.28,688.41Z"/><path class="cls-2" d="M914.38,287.25v384c-17.29,5.41-34.46,10.74-51.6,16.18-7.25,2.3-10.81,9-8.67,15.95,2.06,6.69,8.55,10.34,15.68,8.24,13.12-3.87,26.15-8.07,39.21-12.15,1.62-.51,3.21-1.1,5.64-1.94,0,5.81.25,11.12-.16,16.37-.12,1.49-2,3.09-3.37,4.21Q842.44,772.78,773.7,827.3l-27.07,21.51V726.5c7.74,0,15.47.19,23.18,0s15.59-.79,23.36-1.47c7.46-.66,12.33-6.23,11.86-13.14-.51-7.32-6-12.22-13.65-12-13.52.39-27,.78-40.55,1.4-3.78.18-4.6-1.12-4.6-4.73q.15-91.95,0-183.88c0-29.52-.12-59,.09-88.55a10.09,10.09,0,0,1,3.59-6.74Q803.84,374.29,858,331.55q26.73-21.19,53.44-42.41C912.19,288.54,913.06,288.09,914.38,287.25Z"/><path class="cls-2" d="M333.79,564.26c-5.36-1.06-10.26-3-15.08-2.82-15.59.54-31.16,1.7-46.71,2.95-7.56.61-12.13,6.19-11.69,13.31s5.82,12,13.32,11.6c16.8-.84,33.59-1.81,50.36-3.12,3.2-.25,6.25-2.36,9.63-3.71v265.9c-1.52-1-2.64-1.58-3.62-2.36q-79.94-63.43-159.91-126.85c-3.31-2.61-4.73-5.24-4.7-9.52q.31-43.49.07-87c0-3.67,1-5.61,4.54-6.79,10.53-3.48,20.91-7.4,31.44-10.91,8.51-2.84,12.54-9,10.28-16.4s-9-10.53-17.57-7.85c-9.4,2.92-18.74,6.06-28.46,9.22V287c1.82,1.32,3.13,2.2,4.36,3.17q79.32,63,158.7,125.85c3.8,3,5.24,6,5.22,10.87-.17,45.32-.08,90.64-.08,136A7.76,7.76,0,0,1,333.79,564.26Z"/><path class="cls-3" d="M541.25,539.9c-10-12.7-20.14-24.83-29.48-37.52-20.15-27.38-40.59-54.59-59.52-82.8-9.68-14.43-17.15-30.51-24.25-46.46-12.68-28.5-9.93-57.3,3.31-84.62,23.37-48.17,62.77-71.95,116.21-70.74C602.66,219,651.69,263.59,660.8,318.13c4.32,25.88-2.1,49.12-13.41,71.73-17.95,35.91-42,67.76-66.35,99.42-11.63,15.14-23.54,30.06-35.33,45.08C544.33,536.12,542.91,537.84,541.25,539.9Zm.2-285.2c-46-.17-83.9,37.21-84.07,82.92-.17,46.84,37,84.79,83.19,84.93a83.93,83.93,0,1,0,.88-167.85Z"/><path d="M401,568.51c9.34,2.43,21.76,5.57,34.12,8.91,4.84,1.31,9.63,2.91,14.33,4.68,6.91,2.62,10.12,9.26,8,15.95-2,6.35-8.47,9.91-15.4,8.09q-24.1-6.32-48.14-13a12.7,12.7,0,0,1-9.16-14.44C385.85,572.43,391.22,568.18,401,568.51Z"/><path d="M514.33,613.32c1,.36,3.54.74,5.46,2,14.28,9.46,28.53,18.95,42.57,28.75,5.36,3.74,6.28,11.46,2.76,16.79-3.67,5.58-11.3,7.71-16.92,4q-21.68-14.26-43-29.12c-4.59-3.19-5.89-8.76-4.13-13.93S507.54,613.36,514.33,613.32Z"/><path d="M608.28,688.41a12.31,12.31,0,0,1,16.07-11.94q24.28,7.47,48.45,15.29c5.92,1.91,9.25,8.43,7.88,14.64-1.4,6.42-7.62,11.54-13.8,9.76-17.43-5-34.7-10.6-51.87-16.46C610.29,698.09,608.07,693.64,608.28,688.41Z"/><path d="M541.45,254.7a83.93,83.93,0,1,1-.88,167.85c-46.19-.14-83.36-38.09-83.19-84.93C457.55,291.91,495.45,254.53,541.45,254.7ZM541,397.13a59,59,0,0,0,59-58.4c.19-31.92-26.61-58.77-58.69-58.77s-58.47,26.29-58.65,58.2A58.79,58.79,0,0,0,541,397.13Z"/><path class="cls-2" d="M541,397.13a58.79,58.79,0,0,1-58.32-59c.18-31.91,26.67-58.2,58.65-58.2s58.88,26.85,58.69,58.77A59,59,0,0,1,541,397.13Z"/></g></g></svg>