<svg xmlns="http://www.w3.org/2000/svg" viewBox="0 0 1080 1080"><defs><style>.cls-1{fill:#87d150;}.cls-2{fill:#2b8a28;}</style></defs><g id="Layer_2" data-name="Layer 2"><g id="bg"><rect class="cls-1" width="1080" height="1080" rx="106.19"/></g><g id="shopping_bag" data-name="shopping bag"><path class="cls-2" d="M156.57,896.45c.26-3.25,0-4.29.44-4.92,47.9-74.41,41.28-159.25,45.83-241.8,5.58-101.07,10.1-202.2,15.15-303.3.25-5,1.14-9.92,2-17.28l185.62-10c2.52-31,3.84-62.17,7.8-93C422,159.45,465.3,120.52,531.32,118.58c5.63-.16,11.31,1.21,24.2,2.7-13.3,7.23-20.31,13.33-28.27,15C462.59,150,440,171,430.45,233.15c-4.11,26.6-3.69,53.9-5.45,82.79h58.78v23.72l-105.5,8.46c.11,1.35.21,2.69.31,4l111.65-6.58c-8.9,10.75-12.8,18.07-18.87,22.23-11.79,8.09-18.18,18.31-7.3,28.94,5.66,5.52,18.11,4.08,27.49,5.79.43-2.56.86-5.11,1.28-7.67l-28-7.59c36.44-18.79,27.84-48.41,30.52-75.16,4-40.37,6.1-81.59,16.3-120.53,12.14-46.3,47-70.92,95.53-75,46.56-4,78.36,18.69,100.33,56.64,11,18.92,19.46,39.68,26.2,60.53s9.87,42.76,15,65.89l102.55,16.72C862,437.91,871,560,884.24,681.6c5.18,47.68,18.67,94.59,30.3,141.37,4.44,17.9,2.78,25.5-17.15,29.78-167.6,36-335,73.2-502.43,109.88-4.88,1.07-10.51,2-15.09.66C305.2,941.18,230.65,918.7,156.57,896.45ZM522,338c.08,1.44.17,2.87.25,4.3l201.1-12.45c-6.15,12.24-11.76,19.85-13.7,28.29-1.83,7.92-2.92,19.86,1.46,24.26,4.17,4.18,15.83.9,24.2.9l-.17-6.11-19.77-3.5c5.42-14.73,13.76-27.21,14-39.88C730.76,273,718.55,215,680.24,166.18c-34.5-43.95-100.62-43.23-134.7,1.18-33,43-31.87,94.14-31.5,141.76,36.19,0,69.22-.5,102.23.2,17.46.38,21.93-7.67,20.4-23.52-4.72-49-6-98.9-52.38-140.07,14.54,1.4,24.47-.67,28,3.16,40.53,44,39.25,100.47,42.92,154.69,63.77,7,63.77,7,61.14,21.6ZM380.25,902.79c-27.75-175.23-12.77-352.74-27.13-528.87a89.81,89.81,0,0,0-2.74,21.57c.3,126.65,2.24,253.31.33,379.92C350,821.26,364.24,861.61,380.25,902.79ZM312.1,398.33l-3.7,1.13c-5.81,134.3-11.85,268.58-17.11,402.89-.57,14.57-4.93,23.22-18.3,29.64-22.94,11-45,23.9-67.4,36,24.3-5.9,46.74-15.46,68-27.23,14.09-7.81,22.51-6.34,30.94,7.65,10.27,17.05,22.47,32.92,33.84,49.31,2.17-6.58,1.07-11.51-1.89-14.73-35.14-38.26-36.8-83.34-34.28-132.71C308.12,633.1,309.1,515.66,312.1,398.33Zm359,367.74.87,4.77,131.64-23.15-.63-3.75ZM540.79,793.81,540,789,414,811.12l.81,4.77Z"/></g></g></svg>