<svg xmlns="http://www.w3.org/2000/svg" viewBox="0 0 1080 1080"><defs><style>.cls-1{fill:#87d150;}.cls-2{fill:#2b8a28;}.cls-3{fill:#b4fab1;}</style></defs><g id="Layer_2" data-name="Layer 2"><g id="bg"><rect class="cls-1" width="1080" height="1080" rx="106.19"/></g><g id="Layer_16" data-name="Layer 16"><path class="cls-2" d="M136,462.68c10.92-30,17.21-62.89,33.62-89.53C218.8,293.31,293.76,257.52,386,269.82s153.34,67.12,182.44,156.27c.55,1.7,1.9,3.5,1.64,5.05-6.21,37.23,19.16,60.87,37.57,87.44,9.86,14.25,20.12,28.23,31.06,43.54-14.79,10.93-28.93,22.76-44.44,32.38-11.29,7-14.65,15.42-14,28a125.89,125.89,0,0,1-2.54,32c-5.94,28.65-31.29,50.67-60.42,52.86-11.17.84-22.46.14-35.56.14V810.92H207.53V774.06c0-18.55-.86-37.15.17-55.65,2.19-39.16.35-74.77-31.5-105.87-26.29-25.68-32-64.16-40.2-99.57Zm425.31,86.21c-4.72-6.79-9.09-13.86-14.22-20.33-19.18-24.2-36.28-48.94-31-82.5.77-4.84-1.89-10.47-3.75-15.44-23-61.45-82.68-106.29-143.43-108-74.46-2.11-134.84,33.82-163.35,97.2-27.84,61.88-17,134.31,32.57,182,19.52,18.78,25.83,36.92,24.21,62.06-1.65,25.61-.42,51.4-.32,77.12,0,5.15.65,10.29,1,15.36h164.1V653.05h66.21c31,0,33.84-1.17,31.59-32.2-2.16-29.71,2-54.09,32.24-67.25C558.57,553,559.42,551.1,561.31,548.89Z"/><path class="cls-2" d="M944,602.76c-3.54,16.84-6.27,33.9-10.78,50.48-12.61,46.38-36.05,86.7-70.3,121.62-12-13.24-23.77-26.28-36.69-40.58,40-41.65,62.86-95.16,62.65-156.57-.21-60.78-21.71-114.28-65.25-159l39.9-37.7c42,43.06,68.05,95.19,77.06,156,.77,5.21,2.26,10.32,3.41,15.48Z"/><path class="cls-2" d="M775.74,719.36l-37.1-37.05c55.37-69.07,56-139.14.18-209.22l37.73-35.31C847.51,498.45,859.92,638.81,775.74,719.36Z"/><path class="cls-2" d="M701.71,659.86l-38.87-36.58c24-30.63,23.86-60.78.28-91.06l37.58-36.28C742,528.51,751.64,611.81,701.71,659.86Z"/><path class="cls-3" d="M561.31,548.89c-1.89,2.21-2.74,4.1-4.15,4.71-30.25,13.16-34.4,37.54-32.24,67.25,2.25,31-.56,32.2-31.59,32.2H427.12V756.36H263c-.34-5.07-1-10.21-1-15.36-.1-25.72-1.33-51.51.32-77.12,1.62-25.14-4.69-43.28-24.21-62.06-49.57-47.7-60.41-120.13-32.57-182,28.51-63.38,88.89-99.31,163.35-97.2,60.75,1.72,120.39,46.56,143.43,108,1.86,5,4.52,10.6,3.75,15.44-5.29,33.56,11.81,58.3,31,82.5C552.22,535,556.59,542.1,561.31,548.89Z"/></g></g></svg>