<svg xmlns="http://www.w3.org/2000/svg" viewBox="0 0 1080 1080"><defs><style>.cls-1{fill:#a069de;}.cls-2{fill:#48428a;}</style></defs><g id="Layer_2" data-name="Layer 2"><g id="bg"><rect class="cls-1" width="1080" height="1080" rx="106.19"/></g><g id="sneaker"><path class="cls-2" d="M947.16,846.73a232.07,232.07,0,0,1-68.85,41.13c-47,18.32-95.89,23.78-146,21-46.43-2.58-91.76-10.56-135.22-27.43-74.77-29-132.22-77.67-168.43-150-22.07-44.09-56.9-76.41-95.87-105.15-30.41-22.44-64.66-37.84-97.73-55.53-51.32-27.45-95.7-63.37-127.51-113a146.77,146.77,0,0,1-12.63-25.53c-10.51-26.81-3.76-50.05,16.24-69.78,13.4-13.23,29.78-21.57,48.14-27.65,2.92,7.48,5.36,14.87,8.62,21.87,14.16,30.35,35.43,55.58,58,79.92,30.78,33.26,66.66,60.63,101.51,89.26C374,564,419.49,603.6,457.5,650.71c11.69,14.5,21.68,30.6,30.78,46.9,21.38,38.32,50.65,69.63,83.89,97.55,26.51,22.28,54.16,43.64,88.53,51.52,25.77,5.91,52.38,9,78.8,11.07a752.61,752.61,0,0,0,151-2.86C908.81,852.64,927,849.65,947.16,846.73ZM250.88,513.79c-2.39-4.22-4.14-9-7.28-12.56-8.89-10.05-18.36-19.59-27.58-29.36q-34-36-68-72c-6.43-6.79-14.08-7.95-21.17-3.74-6.71,4-10.19,12.25-7.23,19.61,1.61,4,4.67,7.59,7.68,10.81,17.37,18.61,34.93,37,52.42,55.55q20.46,21.66,40.92,43.32c5.35,5.63,11.85,7.45,19.1,4.36C246.3,527,249.57,521.68,250.88,513.79Z"/><path class="cls-2" d="M302.91,198.57c31.19-19.3,63.85-33.29,102-26.27,16.31,3,22.65,11.91,21.45,28.54-2.74,37.72,5.6,72.43,29.18,102.58a140.58,140.58,0,0,0,19.82,20.48C523.12,364.34,577.76,381.24,640.1,371c3.87-.63,7.79-1,11.69-1.37a25.46,25.46,0,0,1,3.35.18l12.21,33.93c-19.49,5.57-38,10.82-56.48,16.16-10.11,2.93-14.27,8.91-11.84,16.75,2.28,7.34,8.88,10.11,18.64,7.43,19.13-5.24,38.22-10.67,58.27-16.28L688.76,463c-14.57,3.51-28.32,6.82-42.06,10.15-2.72.66-5.48,1.21-8.14,2.06-7.51,2.39-11.13,8.32-9.51,15.35,1.58,6.84,7.73,10.67,15.62,9,12.32-2.64,24.55-5.66,36.79-8.66,16-3.9,16-4,21.39,11.07,2,5.47,3.85,11,6.12,17.48l-39.7,10c-5.7,1.43-11.48,2.64-17.1,4.35-7.44,2.28-11.2,8.82-9.3,15.48,2,6.95,8,10.47,15.77,8.72,9.83-2.21,19.58-4.81,29.38-7.21,9.5-2.33,19-4.61,29.77-7.21,3.8,10.45,7.57,20.79,11.77,32.31-16.44,3.84-31.82,7.41-47.21,11-4.08,1-8.24,1.73-12.21,3-7.26,2.36-10.58,8-9,14.79s7.69,11,15.49,9.33c15.62-3.26,31.13-7,46.68-10.6,14.66-3.4,14-3.14,20.34,10.83,6,13.17,13.43,25.67,20.43,38.86-7.17.78-15.11,1.35-23,2.54-32,4.87-58,19.72-76.92,46.34-1,1.37-1.95,2.73-3,4-10.18,12.31-18.43,13.81-31.68,5.29-21.86-14-33.68-35.45-42.26-59-10.94-30.06-15.08-61.45-16.28-93.14-.84-22.08-.37-44.29.83-66.36,3.12-57.25-39.37-98.75-96.35-93.11-45.25,4.47-84.52-9.42-118.93-38.28-2.39-2-5-5.93-4.69-8.64,6.16-53.92-13.64-100-42.55-143.44-1.87-2.8-3.83-5.53-5.7-8.33A10,10,0,0,1,302.91,198.57Z"/><path class="cls-2" d="M536.67,723.92c19.14,6,36.82,12.16,54.84,17,16.85,4.56,34.14,6.16,51.58,2.83,16-3.06,30-10.09,39.07-23.91,28.67-43.59,81.58-48.08,119.22-35.52,30.08,10,58.09,26.26,87,39.71q28.94,13.44,57.92,26.78c14.72,6.78,27.73,15.86,37.66,28.82,9.25,12.08,8,19.59-5,27.56-18.32,11.2-39.15,14.85-59.85,18.25-74.37,12.23-149,11.26-223.67,3.19-31.39-3.39-59.13-16.28-84.38-34.95C583.73,773.48,558.78,750.75,536.67,723.92Z"/><path class="cls-2" d="M281.63,455.39c27-18.88,48.11-41.25,61.13-71.2,8.52,5.63,16.39,11.29,24.69,16.25,33.75,20.2,70.07,28.75,109.42,24.27,40.61-4.61,69.76,21.92,69.69,62.83,0,26.59-1.33,53.26.17,79.77,2.49,44.17,10.2,87.37,33.07,126.35C584,700.84,589.16,707.47,595,716c-9.07-2.8-17-4.44-24.18-7.61-20-8.77-39.68-18.11-59.4-27.43a14.68,14.68,0,0,1-6.07-5.45C482.94,636.72,453,604,420.11,574.35c-40.3-36.38-82.38-70.8-123.69-106.08C291.77,464.3,287.2,460.25,281.63,455.39Z"/><path class="cls-2" d="M281.4,213.32c29.25,42.23,52.68,85.34,44.7,138.4-4.38,29.1-20.77,51.55-42.63,70.3-6.35,5.45-13.25,10.25-20.4,15.74-19.85-18.6-38.42-37.67-53.14-59.82-9.67-14.54-17.23-30.55-25-46.28-4.24-8.63-2.35-16.53,4.15-24.61C216.42,273.1,245.71,241.25,281.4,213.32Z"/><path class="cls-2" d="M535.41,333.6c21.09-23.07,42.36-42,74.17-42.58,10.08-.19,17.68,4.48,21.5,13.33,5.51,12.78,9.79,26.09,15,40.21C608.08,350.31,571.8,350.32,535.41,333.6Z"/></g></g></svg>